<svg width="938" height="1152" viewBox="0 0 938 1152" fill="none" xmlns="http://www.w3.org/2000/svg">
<g clip-path="url(#clip0_2001_225)">
<path d="M804.859 498.707C853.308 487.601 884.569 438.664 863.747 393.53C847.404 358.104 826.312 324.914 800.948 294.912C756.131 241.9 699.276 200.383 635.136 173.831C570.996 147.28 501.432 136.464 432.258 142.288C363.084 148.112 296.309 170.407 237.511 207.31C178.714 244.212 129.602 294.651 94.2788 354.411C58.956 414.171 38.4484 481.517 34.4696 550.822C30.4907 620.126 43.1562 689.377 71.4075 752.787C87.3959 788.672 108.113 822.098 132.908 852.218C164.499 890.594 222.16 883.721 253.228 844.921C284.296 806.121 276.278 749.729 250.63 707.152C245.254 698.227 240.416 688.957 236.152 679.387C219.614 642.268 212.2 601.729 214.529 561.159C216.858 520.589 228.863 481.165 249.54 446.182C270.218 411.199 298.968 381.673 333.387 360.071C367.807 338.469 406.896 325.417 447.39 322.008C487.884 318.599 528.605 324.93 566.152 340.473C603.699 356.016 636.981 380.32 663.217 411.353C669.981 419.353 676.226 427.741 681.925 436.463C709.114 478.073 756.41 509.813 804.859 498.707Z" fill="#FEBD59"/>
<path d="M647.816 280.955C673.669 238.502 729.979 224.315 766.216 258.337C794.658 285.042 819.478 315.544 839.922 349.092C876.047 408.37 897.461 475.434 902.374 544.678C907.287 613.923 895.556 683.338 868.163 747.123C840.769 810.908 798.507 867.211 744.909 911.327C691.311 955.443 627.933 986.09 560.071 1000.71C492.209 1015.33 421.834 1013.49 354.826 995.358C287.817 977.224 226.123 943.315 174.896 896.466C145.905 869.953 120.744 839.731 100.006 806.686C73.5856 764.584 98.3351 712.052 144.967 694.844C191.599 677.635 242.564 703.069 274.849 740.862C281.616 748.785 288.882 756.305 296.613 763.375C326.6 790.8 362.716 810.65 401.942 821.266C441.167 831.882 482.364 832.956 522.09 824.398C561.816 815.84 598.916 797.899 630.292 772.075C661.668 746.25 686.407 713.291 702.443 675.952C718.48 638.612 725.346 597.978 722.471 557.443C719.595 516.907 707.059 477.649 685.912 442.948C680.46 434.002 674.477 425.426 668.003 417.262C637.123 378.312 621.962 323.408 647.816 280.955Z" fill="#FF914C"/>
<mask id="path-3-outside-1_2001_225" maskUnits="userSpaceOnUse" x="363.465" y="443.465" width="259" height="236" fill="black">
<rect fill="white" x="363.465" y="443.465" width="259" height="236"/>
<path d="M457.207 444.529V516.453L513.603 444.529H608.672L533.086 543.113L620.391 678.465H513.603L464.678 595.701L459.258 605.222V678.465H364.482V444.529H457.207Z"/>
</mask>
<path d="M457.207 444.529H458.207V443.529H457.207V444.529ZM457.207 516.453H456.207V519.349L457.994 517.07L457.207 516.453ZM513.603 444.529V443.529H513.117L512.817 443.912L513.603 444.529ZM608.672 444.529L609.465 445.137L610.699 443.529H608.672V444.529ZM533.086 543.113L532.292 542.504L531.864 543.063L532.246 543.655L533.086 543.113ZM620.391 678.465V679.465H622.226L621.231 677.922L620.391 678.465ZM513.603 678.465L512.743 678.973L513.033 679.465H513.603V678.465ZM464.678 595.701L465.539 595.192L464.661 593.708L463.809 595.206L464.678 595.701ZM459.258 605.222L458.389 604.728L458.258 604.958V605.222H459.258ZM459.258 678.465V679.465H460.258V678.465H459.258ZM364.482 678.465H363.482V679.465H364.482V678.465ZM364.482 444.529V443.529H363.482V444.529H364.482ZM456.207 444.529V516.453H458.207V444.529H456.207ZM457.994 517.07L514.39 445.146L512.817 443.912L456.42 515.836L457.994 517.07ZM513.603 445.529H608.672V443.529H513.603V445.529ZM607.878 443.921L532.292 542.504L533.879 543.721L609.465 445.137L607.878 443.921ZM532.246 543.655L619.55 679.007L621.231 677.922L533.926 542.571L532.246 543.655ZM620.391 677.465H513.603V679.465H620.391V677.465ZM514.464 677.956L465.539 595.192L463.817 596.21L512.743 678.973L514.464 677.956ZM463.809 595.206L458.389 604.728L460.127 605.717L465.547 596.196L463.809 595.206ZM458.258 605.222V678.465H460.258V605.222H458.258ZM459.258 677.465H364.482V679.465H459.258V677.465ZM365.482 678.465V444.529H363.482V678.465H365.482ZM364.482 445.529H457.207V443.529H364.482V445.529Z" fill="#FF914C" mask="url(#path-3-outside-1_2001_225)"/>
<mask id="path-5-outside-2_2001_225" maskUnits="userSpaceOnUse" x="390.465" y="477.465" width="174" height="158" fill="black">
<rect fill="white" x="390.465" y="477.465" width="174" height="158"/>
<path d="M453.293 478.507V526.457L490.891 478.507H554.269L503.879 544.23L562.082 634.465H490.891L458.273 579.289L454.66 585.636V634.465H391.477V478.507H453.293Z"/>
</mask>
<path d="M453.293 478.507V526.457L490.891 478.507H554.269L503.879 544.23L562.082 634.465H490.891L458.273 579.289L454.66 585.636V634.465H391.477V478.507H453.293Z" fill="white"/>
<path d="M453.293 478.507H454.293V477.507H453.293V478.507ZM453.293 526.457H452.293V529.353L454.08 527.074L453.293 526.457ZM490.891 478.507V477.507H490.404L490.104 477.89L490.891 478.507ZM554.269 478.507L555.063 479.116L556.296 477.507H554.269V478.507ZM503.879 544.23L503.085 543.622L502.657 544.18L503.038 544.772L503.879 544.23ZM562.082 634.465V635.465H563.917L562.922 633.922L562.082 634.465ZM490.891 634.465L490.03 634.973L490.32 635.465H490.891V634.465ZM458.273 579.289L459.134 578.78L458.257 577.296L457.404 578.794L458.273 579.289ZM454.66 585.636L453.791 585.142L453.66 585.372V585.636H454.66ZM454.66 634.465V635.465H455.66V634.465H454.66ZM391.477 634.465H390.477V635.465H391.477V634.465ZM391.477 478.507V477.507H390.477V478.507H391.477ZM452.293 478.507V526.457H454.293V478.507H452.293ZM454.08 527.074L491.677 479.125L490.104 477.89L452.506 525.84L454.08 527.074ZM490.891 479.507H554.269V477.507H490.891V479.507ZM553.476 477.899L503.085 543.622L504.672 544.839L555.063 479.116L553.476 477.899ZM503.038 544.772L561.242 635.007L562.922 633.922L504.719 543.688L503.038 544.772ZM562.082 633.465H490.891V635.465H562.082V633.465ZM491.751 633.956L459.134 578.78L457.413 579.798L490.03 634.973L491.751 633.956ZM457.404 578.794L453.791 585.142L455.529 586.131L459.142 579.783L457.404 578.794ZM453.66 585.636V634.465H455.66V585.636H453.66ZM454.66 633.465H391.477V635.465H454.66V633.465ZM392.477 634.465V478.507H390.477V634.465H392.477ZM391.477 479.507H453.293V477.507H391.477V479.507Z" fill="#FF914C" mask="url(#path-5-outside-2_2001_225)"/>
</g>
<defs>
<clipPath id="clip0_2001_225">
<rect width="938" height="1152" fill="white"/>
</clipPath>
</defs>
</svg>
